<svg width="18" height="18" viewBox="0 0 18 18" xmlns="http://www.w3.org/2000/svg" xmlns:xlink="http://www.w3.org/1999/xlink">
    <defs>
        <path id="kytm5n08ta" d="M0 12.375h9.375v-9.75H16.5V0H0z"/>
    </defs>
    <g fill="none" fill-rule="evenodd" opacity=".496">
        <path stroke="#000" stroke-width="1.2" stroke-dasharray="0,0" d="M10.125 13.5H0"/>
        <g transform="translate(.75 2.25)">
            <mask id="vg2aiwaqlb" fill="#fff">
                <use xlink:href="#kytm5n08ta"/>
            </mask>
            <use fill-opacity="0" fill="#000" xlink:href="#kytm5n08ta"/>
            <path d="M2.5 1.5H14a1 1 0 0 1 1 1v7a1 1 0 0 1-1 1H2.5a1 1 0 0 1-1-1v-7a1 1 0 0 1 1-1z" stroke="#000" stroke-width="1.2" stroke-dasharray="0,0" mask="url(#vg2aiwaqlb)"/>
        </g>
        <path d="M13 15h2.5a1 1 0 0 0 1-1V7.75a1 1 0 0 0-1-1H13a1 1 0 0 0-1 1V14a1 1 0 0 0 1 1z" stroke="#000" stroke-width="1.2" stroke-dasharray="0,0"/>
    </g>
</svg>
