<svg width="24" height="24" viewBox="0 0 24 24" xmlns="http://www.w3.org/2000/svg" xmlns:xlink="http://www.w3.org/1999/xlink">
    <defs>
        <path d="M7 3a4 4 0 1 1 0 8 4 4 0 0 1 0-8zm0 10a4 4 0 1 1 0 8 4 4 0 0 1 0-8zM17 3a4 4 0 1 1 0 8 4 4 0 0 1 0-8zm0 10a4 4 0 1 1 0 8 4 4 0 0 1 0-8z" id="owg432swra"/>
        <mask id="ziponuu00b" maskContentUnits="userSpaceOnUse" maskUnits="objectBoundingBox" x="0" y="0" width="18" height="18" fill="#fff">
            <use xlink:href="#owg432swra"/>
        </mask>
    </defs>
    <use mask="url(#ziponuu00b)" xlink:href="#owg432swra" stroke="#FFF" stroke-width="2.4" fill="none" fill-rule="evenodd" stroke-dasharray="0,0"/>
</svg>
