<svg width="24" height="24" viewBox="0 0 24 24" xmlns="http://www.w3.org/2000/svg">
    <g stroke="#000" stroke-width="1.2" fill="none" fill-rule="evenodd" stroke-dasharray="0,0">
        <path d="M12 15a3 3 0 1 1 0-6 3 3 0 0 1 0 6z"/>
        <path d="M9.978 5.849a6.5 6.5 0 0 0-2.307 1.325L4.984 6.152 3.427 8.848l2.213 1.81a6.468 6.468 0 0 0 0 2.685l-2.213 1.809 1.557 2.696 2.69-1.018a6.5 6.5 0 0 0 2.304 1.321L10.443 21h3.114l.465-2.849a6.5 6.5 0 0 0 2.307-1.325l2.687 1.022 1.557-2.696-2.213-1.81a6.468 6.468 0 0 0 0-2.685l2.213-1.809-1.557-2.696-2.69 1.018a6.5 6.5 0 0 0-2.304-1.321L13.557 3h-3.114l-.465 2.849z"/>
    </g>
</svg>
