<svg width="24" height="24" viewBox="0 0 24 24" xmlns="http://www.w3.org/2000/svg">
    <path d="M8.5 12.5c-2.301 0-4.167-1.903-4.167-4.25S6.2 4 8.5 4c2.301 0 4.167 1.903 4.167 4.25S10.8 12.5 8.5 12.5zm9.5 2c-1.534 0-2.778-1.231-2.778-2.75S16.466 9 18 9s2.778 1.231 2.778 2.75S19.534 14.5 18 14.5zM1 21c1.002-3.449 3.98-5.95 7.5-5.95 2.533 0 4.786 1.296 6.223 3.308M16 21a8.736 8.736 0 0 0-1.277-2.642M23 21c-.668-2.231-2.654-3.85-5-3.85-1.24 0-2.38.452-3.277 1.208" stroke="#FFF" stroke-width="1.2" fill="none" fill-rule="evenodd" stroke-dasharray="0,0"/>
</svg>
