<svg width="18" height="18" viewBox="0 0 18 18" xmlns="http://www.w3.org/2000/svg">
    <g stroke="#4CAF50" stroke-width="1.2" fill="none" fill-rule="evenodd" opacity=".496" stroke-dasharray="0,0">
        <path d="M15 3.5v8.75a2 2 0 0 1-2 2h-2.125L9 16.5l-1.875-2.25H5a2 2 0 0 1-2-2V3.5a2 2 0 0 1 2-2h8a2 2 0 0 1 2 2z"/>
        <path d="M9 7.799c-.92 0-1.667-.739-1.667-1.65C7.333 5.24 8.08 4.5 9 4.5s1.667.738 1.667 1.65c0 .91-.747 1.649-1.667 1.649zm-3 3.826c.4-1.338 1.592-2.31 3-2.31s2.6.972 3 2.31"/>
    </g>
</svg>
